<svg xmlns="http://www.w3.org/2000/svg" viewBox="0 0 60 60" enable-background="new 0 0 60 60"><style type="text/css">.st0{fill:#154C7B;} .st1{fill:#0C786E;} .st2{fill:#23B15E;} .st3{fill:#FFFFFF;}</style><path class="st0" d="M21.8 57.7l-17.3-11.2c-4.8-3.2-5-8.4-.7-12l17.2-12c5-3.1 13-3.1 18 0l17.2 12c4.3 3.6 4.1 8.8-.8 12l-17.2 11.2c-4.5 3.1-11.9 3.1-16.4 0"/><path class="st1" d="M21.8 47.2l-17.3-11.2c-4.8-3.2-5-8.4-.7-12l17.2-12c5-3.1 13-3.1 18 0l17.2 12c4.3 3.6 4.1 8.8-.8 12l-17.2 11.2c-4.5 3.1-11.9 3.1-16.4 0"/><path class="st2" d="M21.8 37.5l-17.3-11.3c-4.8-3.2-5-8.4-.7-12l17.2-12c5-3.1 13-3.1 18 0l17.2 12c4.3 3.6 4.1 8.8-.8 12l-17.2 11.3c-4.5 3-11.9 3-16.4 0"/><path class="st3" d="M36.2 24.2c-3.5 2.5-9.1 2.5-12.5 0-3.5-2.5-3.5-6.4 0-8.9s9.1-2.5 12.5 0c3.5 2.5 3.5 6.5 0 8.9zm-16.4-11.7c-5.6 4-5.6 10.5 0 14.5s14.7 4 20.3 0c5.6-4 5.6-10.5 0-14.5l-7.7-5.5c-1.4-1-3.6-1-5 0l-7.6 5.5z"/></svg>