<svg xmlns="http://www.w3.org/2000/svg" width="20" height="20" viewBox="0 0 20 20">
  <g fill="none" fill-rule="evenodd" transform="translate(-2 -2)">
    <rect width="24" height="24"/>
    <path fill="#FFF" d="M10,16 C6.68661538,16 4,13.3152308 4,10 C4,6.68569231 6.68661538,4 10,4 C13.3133846,4 16,6.68569231 16,10 C16,13.3152308 13.3133846,16 10,16 M16.6176266,14.4963063 C17.4900271,13.2148974 18,11.6669695 18,10 C18,5.58231579 14.4176842,2 10,2 C5.58231579,2 2,5.58231579 2,10 C2,14.4181053 5.58231579,18 10,18 C11.6668872,18 13.2148417,17.4900402 14.4962981,16.6176184 L19.3053507,21.4266711 C19.8890285,22.0103489 20.8388348,22.0104076 21.4246212,21.4246212 C22.0144916,20.8347508 22.0113254,19.8900051 21.4266711,19.3053507 L16.6176266,14.4963063 Z"/>
  </g>
</svg>
