<svg xmlns="http://www.w3.org/2000/svg" width="140" height="32" viewBox="0 0 140 32">
  <g fill="none" fill-rule="evenodd">
    <path fill="#256499" d="M1.33482514,19.2508685 C-0.0218689087,20.8412968 0.292523622,22.8025947 2.25241084,24.0970761 L11.2129637,29.9293342 L10.9402099,30.3483871 L11.215771,29.9311748 C13.3929758,31.3691783 17.0833234,31.3691783 19.2622179,29.9300636 L28.1729369,24.0963331 C30.1898595,22.7913796 30.5000185,20.8186922 29.1060165,19.2437055 C28.9824104,19.3373438 28.8526398,19.4282635 28.7167139,19.5162078 L19.8179491,25.2904024 C17.3054458,27.0051798 13.1786723,27.0064241 10.6638262,25.2941354 L1.70409601,19.5139865 C1.57537491,19.4289686 1.45228063,19.3411869 1.33482514,19.2508685 Z"/>
    <path fill="#0C786E" d="M1.15896819,14.052209 C0.0103348192,15.6001266 0.382012467,17.4423493 2.25070866,18.6766183 L11.2112616,24.4572634 L10.9402099,24.8774194 L11.2220699,24.4644363 C13.3964034,25.9484137 17.0798957,25.9484137 19.2639212,24.4579857 L28.1729369,18.6769783 C30.0974258,17.4318296 30.4680052,15.5787477 29.2869359,14.0432945 C29.1112268,14.187303 28.9217102,14.3255027 28.7184171,14.4570331 L19.8116502,20.2881801 C17.3006705,21.9466357 13.1776719,21.9469507 10.6660799,20.2891249 L1.70409601,14.455922 C1.50951526,14.327405 1.32779222,14.1925726 1.15896819,14.052209 Z"/>
    <path fill="#23B15E" d="M11.215771,19.4537554 C13.3929758,20.8917589 17.0833234,20.8917589 19.2622179,19.4526443 L28.1729369,13.6189138 C30.4144236,12.1686668 30.5479267,9.89371732 28.5770184,8.25647019 L19.6390655,2.0776581 C17.1947856,0.576264505 13.2294173,0.576264505 10.8077374,2.0629218 L1.8865322,8.22628315 C-0.0732262999,9.89049149 0.0606637624,12.1720348 2.25241084,13.6196567 L11.2129637,19.4519148 L10.9402099,19.8709677 L11.215771,19.4537554 Z"/>
    <path fill="#FFF" fill-rule="nonzero" d="M18.4941644,13.0064516 C16.6707961,14.2967742 13.7534068,14.2967742 11.9821347,13.0064516 C10.1587664,11.716129 10.1587664,9.70322581 11.9821347,8.41290323 C13.805503,7.12258065 16.7228923,7.12258065 18.4941644,8.41290323 C20.2654365,9.70322581 20.2654365,11.7677419 18.4941644,13.0064516 L18.4941644,13.0064516 Z M9.95038142,6.96774194 C9.95038142,6.96774194 9.95038142,6.96774194 9.95038142,6.96774194 C7.03299211,9.03225806 7.03299211,12.3870968 9.95038142,14.4516129 C12.8677707,16.516129 17.6085284,16.516129 20.5259177,14.4516129 C23.443307,12.3870968 23.443307,9.03225806 20.5259177,6.96774194 L20.5259177,6.96774194 L16.5145074,4.12903226 C15.7851601,3.61290323 14.6390428,3.61290323 13.9096955,4.12903226 L9.95038142,6.96774194 Z"/>
    <g fill-rule="nonzero" transform="translate(36.988 8.889)">
      <path fill="#00BE5E" d="M63.9094097,0.253968254 C63.9094097,0.253968254 63.9094097,0.253968254 63.9094097,0.253968254 C60.0437518,0.253968254 56.9214896,3.42447517 56.9214896,7.40604199 C56.9214896,11.3138761 60.0437518,14.5581157 63.9094097,14.5581157 C67.7750676,14.5581157 70.8973298,11.3876088 70.8973298,7.40604199 L70.8973298,1.94982079 C70.8973298,0.991295443 70.153934,0.180235535 69.1875195,0.180235535 L63.9094097,0.253968254 L63.9094097,0.253968254 Z M63.9094097,11.7562724 C61.5305433,11.7562724 59.5977143,9.76548899 59.5977143,7.33230927 C59.5977143,4.89912954 61.5305433,2.90834613 63.9094097,2.90834613 C66.2882761,2.90834613 68.2211051,4.89912954 68.2211051,7.33230927 C68.2211051,9.76548899 66.2882761,11.7562724 63.9094097,11.7562724 L63.9094097,11.7562724 L63.9094097,11.7562724 Z M42.3509328,7.33230927 C42.3509328,2.98207885 45.5475346,0.180235535 49.4875321,0.180235535 C51.6433798,0.180235535 53.2045108,0.991295443 54.2452649,2.17101895 C54.4682836,2.3922171 54.5426232,2.68714798 54.5426232,2.98207885 C54.5426232,3.5719406 54.0222462,4.08806964 53.4275296,4.08806964 C53.1301713,4.08806964 52.832813,3.9406042 52.6097942,3.71940604 C51.7920589,2.90834613 50.6769653,2.3922171 49.4875321,2.3922171 C46.8113074,2.3922171 44.8041388,4.45673323 44.8041388,7.33230927 C44.8041388,10.2078853 46.8113074,12.2724014 49.4875321,12.2724014 C50.8256444,12.2724014 52.0894172,11.608807 52.6841338,11.0189452 L52.6841338,8.95442908 L49.5618716,8.95442908 C48.967155,8.95442908 48.5211176,8.51203277 48.5211176,7.8484383 C48.5211176,7.25857655 48.967155,6.81618024 49.5618716,6.81618024 L53.6505483,6.81618024 C54.4682836,6.81618024 55.1373398,7.47977471 55.1373398,8.29083461 L55.1373398,10.7977471 C55.1373398,13.1571941 52.1637568,14.484383 49.4875321,14.484383 C45.5475346,14.484383 42.3509328,11.6825397 42.3509328,7.33230927 Z"/>
      <path fill="#FFF" d="M40.4181039,4.75166411 C40.4181039,2.46594982 38.8569728,0.622631848 36.1064085,0.622631848 L31.7947131,0.622631848 C31.125657,0.622631848 30.5309404,1.2124936 30.5309404,1.87608807 L30.5309404,13.6733231 C30.5309404,14.1157194 30.9026382,14.484383 31.3486757,14.484383 C31.8690527,14.484383 32.2407506,14.1157194 32.2407506,13.6733231 L32.2407506,8.95442908 L36.0320689,8.95442908 C38.7826332,8.88069636 40.4181039,6.96364567 40.4181039,4.75166411 L40.4181039,4.75166411 Z M38.6339541,4.75166411 C38.6339541,6.3000512 37.5188604,7.40604199 35.8833898,7.40604199 L32.3150902,7.40604199 L32.3150902,2.17101895 L35.8833898,2.17101895 C37.5188604,2.09728623 38.6339541,3.20327701 38.6339541,4.75166411 L38.6339541,4.75166411 Z M27.3343386,13.6733231 L27.3343386,1.28622632 C27.3343386,0.843830005 26.9626408,0.475166411 26.5166033,0.475166411 C25.9962263,0.475166411 25.6245284,0.843830005 25.6245284,1.28622632 L25.6245284,13.5995904 C25.6245284,14.0419867 25.9962263,14.4106503 26.4422637,14.4106503 C26.9626408,14.484383 27.3343386,14.1157194 27.3343386,13.6733231 L27.3343386,13.6733231 L27.3343386,13.6733231 Z M22.9483037,4.75166411 C22.9483037,2.24475166 21.1641539,0.622631848 18.6366083,0.622631848 L14.3992525,0.622631848 C13.7301963,0.622631848 13.1354797,1.2124936 13.1354797,1.87608807 L13.1354797,13.6733231 C13.1354797,14.1157194 13.5071776,14.484383 13.9532151,14.484383 C14.4735921,14.484383 14.84529,14.1157194 14.84529,13.6733231 L14.84529,8.95442908 L17.5958543,8.95442908 L20.9411352,14.1894521 C21.0898143,14.4106503 21.3871726,14.5581157 21.6101913,14.5581157 C22.1305684,14.5581157 22.4279267,14.1157194 22.4279267,13.7470558 C22.4279267,13.5995904 22.3535871,13.4521249 22.2792475,13.3046595 L19.3056645,8.80696365 C21.2384935,8.58576549 22.9483037,7.18484383 22.9483037,4.75166411 L22.9483037,4.75166411 Z M18.4135896,2.09728623 C20.0490602,2.09728623 21.1641539,3.20327701 21.1641539,4.75166411 C21.1641539,6.3000512 20.0490602,7.40604199 18.4135896,7.40604199 L14.84529,7.40604199 L14.84529,2.17101895 L18.4135896,2.17101895 L18.4135896,2.09728623 Z M10.9796321,1.35995904 C10.9796321,0.917562724 10.6822738,0.54889913 10.2362363,0.54889913 L1.09246854,0.54889913 C0.64643109,0.54889913 0.349072788,0.843830005 0.349072788,1.28622632 C0.349072788,1.72862263 0.64643109,2.09728623 1.09246854,2.09728623 L4.80944731,2.09728623 L4.80944731,13.5995904 C4.80944731,14.0419867 5.18114518,14.4106503 5.62718264,14.4106503 C6.14755966,14.4106503 6.51925754,14.0419867 6.51925754,13.5995904 L6.51925754,2.09728623 L10.2362363,2.09728623 C10.6822738,2.09728623 10.9796321,1.80235535 10.9796321,1.35995904 L10.9796321,1.35995904 L10.9796321,1.35995904 Z"/>
      <path fill="#FFF" d="M86.2112823,13.5995904 C86.2112823,13.5258577 86.2112823,13.3783922 86.1369427,13.3046595 L81.3792099,1.43369176 C81.1561912,0.843830005 80.6358141,0.475166411 80.0410975,0.475166411 C79.3720414,0.475166411 78.8516643,0.843830005 78.6286456,1.43369176 L73.9452524,13.3046595 C73.8709128,13.3783922 73.8709128,13.5258577 73.8709128,13.5995904 C73.8709128,14.0419867 74.2426107,14.484383 74.7629877,14.484383 C75.1346856,14.484383 75.4320439,14.2631848 75.580723,13.8945212 L76.6214771,11.2401434 L83.460718,11.2401434 L84.5014721,13.8945212 C84.6501512,14.2631848 84.9475095,14.484383 85.3192074,14.484383 C85.8395844,14.484383 86.2112823,13.968254 86.2112823,13.5995904 Z M82.940341,9.76548899 L77.1418541,9.76548899 L80.0410975,2.3922171 L82.940341,9.76548899 Z M98.1799539,4.75166411 C98.1799539,2.46594982 96.6188228,0.622631848 93.8682585,0.622631848 L89.6309027,0.622631848 C88.9618466,0.622631848 88.36713,1.2124936 88.36713,1.87608807 L88.36713,13.6733231 C88.36713,14.1157194 88.7388278,14.484383 89.1848653,14.484383 C89.7052423,14.484383 90.0769402,14.1157194 90.0769402,13.6733231 L90.0769402,8.95442908 L93.8682585,8.95442908 C96.6188228,8.88069636 98.1799539,6.96364567 98.1799539,4.75166411 Z M96.3958041,4.75166411 C96.3958041,6.3000512 95.2807105,7.40604199 93.6452398,7.40604199 L90.0769402,7.40604199 L90.0769402,2.17101895 L93.6452398,2.17101895 C95.2807105,2.09728623 96.3958041,3.20327701 96.3958041,4.75166411 Z M102.119951,13.6733231 L102.119951,1.28622632 C102.119951,0.843830005 101.748254,0.475166411 101.302216,0.475166411 C100.781839,0.475166411 100.410141,0.843830005 100.410141,1.28622632 L100.410141,13.5995904 C100.410141,14.0419867 100.781839,14.4106503 101.227876,14.4106503 C101.748254,14.484383 102.119951,14.1157194 102.119951,13.6733231 Z" opacity=".498"/>
    </g>
  </g>
</svg>
