<svg
                  width="20"
                  height="20"
                  viewBox="0 0 20 20"
                  fill="none"
                  xmlns="http://www.w3.org/2000/svg"
                >
                  <path
                    d="M14.5938 7.90811L16.1538 5.20623C16.1813 5.15998 16.1975 5.10373 16.1975 5.04373C16.1975 4.86436 16.0525 4.71936 15.8731 4.71936C15.7538 4.71936 15.6494 4.78373 15.5931 4.87998L15.5925 4.88123L14.0131 7.61686C12.8338 7.07498 11.4544 6.75873 10.0013 6.75873C8.54814 6.75873 7.16877 7.07498 5.92814 7.64186L5.98939 7.61686L4.41002 4.88061C4.35314 4.78311 4.24814 4.71811 4.12877 4.71811C3.94939 4.71811 3.80439 4.86311 3.80439 5.04248C3.80439 5.10248 3.82064 5.15811 3.84877 5.20623L3.84814 5.20498L5.40814 7.90686C2.72939 9.38623 0.885645 12.0925 0.63127 15.2469L0.629395 15.2794H19.3738C19.1175 12.0925 17.2738 9.38623 14.6425 7.93061L14.595 7.90686L14.5938 7.90811ZM5.68627 12.61C5.25502 12.61 4.90564 12.2606 4.90564 11.8294C4.90564 11.3981 5.25502 11.0487 5.68627 11.0487C6.11752 11.0487 6.46689 11.3981 6.46689 11.8294C6.46627 12.26 6.11752 12.6094 5.68627 12.61ZM14.3138 12.61C13.8825 12.61 13.5331 12.2606 13.5331 11.8294C13.5331 11.3981 13.8825 11.0487 14.3138 11.0487C14.745 11.0487 15.0944 11.3981 15.0944 11.8294C15.0938 12.26 14.745 12.6094 14.3138 12.61Z"
                    fill="currentColor"
                  />
                </svg>