<svg
              width="20"
              height="20"
              viewBox="0 0 20 21"
              fill="none"
              xmlns="http://www.w3.org/2000/svg"
            >
              <g clip-path="url(#clip0_1308_24)">
                <path
                  fill-rule="evenodd"
                  clip-rule="evenodd"
                  d="M10 0.99765C10.5711 0.99765 11.1234 1.20034 11.5596 1.56894L11.5635 1.57187L17.3975 6.57089C17.6643 6.79724 17.8781 7.07869 18.0254 7.39609C18.1733 7.71482 18.25 8.0623 18.25 8.41367V15.9137C18.25 16.5546 17.9952 17.1694 17.542 17.6227C17.0888 18.0758 16.4739 18.3307 15.833 18.3307H4.16699C3.52608 18.3307 2.91122 18.0758 2.45801 17.6227C2.00483 17.1694 1.75 16.5546 1.75 15.9137V8.41367C1.74999 8.0623 1.82672 7.71482 1.97461 7.39609C2.12184 7.07891 2.33599 6.79716 2.60254 6.57089L8.43652 1.57187L8.44043 1.56894C8.87661 1.20034 9.42893 0.99765 10 0.99765ZM10 2.49765C9.7834 2.49765 9.57365 2.57465 9.4082 2.71445L9.40723 2.71347L3.5791 7.70956L3.5752 7.71347C3.47338 7.79952 3.39108 7.90701 3.33496 8.02792C3.27895 8.14875 3.24999 8.28048 3.25 8.41367V15.9137C3.25 16.1568 3.34668 16.3902 3.51855 16.5621C3.69046 16.734 3.9239 16.8307 4.16699 16.8307H6.75V10.9137C6.75009 10.4939 6.91701 10.0914 7.21387 9.79453C7.51072 9.49767 7.9132 9.33074 8.33301 9.33066H11.667C12.0868 9.33074 12.4893 9.49767 12.7861 9.79453C13.083 10.0914 13.2499 10.4939 13.25 10.9137V16.8307H15.833C16.0761 16.8307 16.3095 16.734 16.4814 16.5621C16.6533 16.3902 16.75 16.1568 16.75 15.9137V8.41367C16.75 8.28048 16.7211 8.14875 16.665 8.02792C16.6089 7.90701 16.5266 7.79952 16.4248 7.71347L16.4209 7.70956L10.5918 2.71347C10.4264 2.57367 10.2166 2.49765 10 2.49765ZM8.33301 10.8307C8.31102 10.8307 8.28997 10.8395 8.27441 10.8551C8.25886 10.8706 8.25009 10.8917 8.25 10.9137V16.8307H11.75V10.9137C11.7499 10.8917 11.7411 10.8706 11.7256 10.8551C11.71 10.8395 11.689 10.8307 11.667 10.8307H8.33301Z"
                  fill="currentColor"
                />
              </g>
              <defs>
                <clipPath id="clip0_1308_24">
                  <rect
                    width="20"
                    height="20"
                    fill="white"
                    transform="translate(0 0.080658)"
                  />
                </clipPath>
              </defs>
            </svg>