<svg
                  width="20"
                  height="20"
                  viewBox="0 0 20 20"
                  fill="none"
                  xmlns="http://www.w3.org/2000/svg"
                >
                  <path
                    d="M13.042 1.24277C13.7311 1.01988 14.4197 1.00452 15 1.33945C15.5802 1.67444 15.9119 2.27867 16.0635 2.98691C16.2149 3.69531 16.1993 4.55734 16.0479 5.50253C15.9892 5.86867 15.9086 6.25084 15.8086 6.64609C16.2012 6.75714 16.5723 6.87898 16.9189 7.01132C17.8133 7.35284 18.5667 7.77098 19.1045 8.25644C19.6422 8.74187 20 9.3305 20 10.0006C19.9998 10.6705 19.6421 11.2594 19.1045 11.7447C18.5668 12.23 17.813 12.6474 16.9189 12.9889C16.5724 13.1212 16.201 13.242 15.8086 13.3531C15.9087 13.7487 15.9891 14.1312 16.0479 14.4977C16.1993 15.443 16.214 16.3048 16.0625 17.0133C15.9109 17.7215 15.5802 18.3257 15 18.6607C14.4198 18.9956 13.7311 18.9803 13.042 18.7574C12.3528 18.5344 11.614 18.0896 10.8711 17.4859C10.5834 17.2521 10.2923 16.9918 10 16.7076C9.70764 16.9919 9.41673 17.253 9.12891 17.4869C8.38606 18.0906 7.64722 18.5335 6.95801 18.7564C6.26886 18.9794 5.58027 18.9956 5 18.6607C4.41973 18.3256 4.08902 17.7207 3.9375 17.0123C3.78608 16.304 3.80078 15.4427 3.95215 14.4977C4.01085 14.1313 4.09036 13.7487 4.19043 13.3531C3.79837 13.2421 3.42728 13.1211 3.08105 12.9889C2.18666 12.6473 1.43232 12.2302 0.894531 11.7447C0.357035 11.2594 0.000211146 10.6704 0 10.0006C0 9.33074 0.357163 8.74177 0.894531 8.25644C1.43228 7.771 2.18671 7.35284 3.08105 7.01132C3.4273 6.87912 3.79835 6.75704 4.19043 6.64609C4.09048 6.25088 4.0108 5.86863 3.95215 5.50253C3.8007 4.55722 3.78502 3.69537 3.93652 2.98691C4.08806 2.27869 4.41989 1.67548 5 1.34042C5.58022 1.00543 6.26886 1.01992 6.95801 1.24277C7.64716 1.46578 8.38613 1.90964 9.12891 2.51328C9.41653 2.74705 9.70785 3.0075 10 3.2916C10.2921 3.00758 10.5835 2.74799 10.8711 2.51425C11.614 1.91044 12.3527 1.4658 13.042 1.24277ZM5.0332 13.566C4.93923 13.9374 4.86604 14.2951 4.81152 14.6353C4.66992 15.5193 4.66589 16.2649 4.78711 16.8316C4.90834 17.3979 5.1418 17.7376 5.43457 17.9068C5.72751 18.076 6.13921 18.1085 6.69043 17.9303C7.24182 17.7518 7.88637 17.3757 8.58105 16.8111C8.84816 16.594 9.11926 16.3503 9.39355 16.0836C8.82086 15.4641 8.25011 14.7583 7.7002 13.981C6.7523 13.8933 5.85587 13.7523 5.0332 13.566ZM14.9658 13.567C14.1429 13.7532 13.246 13.8934 12.2979 13.981C11.7482 14.758 11.1788 15.4642 10.6064 16.0836C10.8809 16.3505 11.1526 16.5939 11.4199 16.8111C12.1146 17.3757 12.7582 17.7519 13.3096 17.9303C13.8606 18.1085 14.2715 18.0758 14.5645 17.9068C14.8574 17.7377 15.0916 17.3981 15.2129 16.8316C15.3341 16.265 15.331 15.5192 15.1895 14.6353C15.135 14.2954 15.0597 13.938 14.9658 13.567ZM8.83594 14.0592C9.22049 14.5668 9.61068 15.035 10 15.4586C10.3893 15.035 10.7795 14.5668 11.1641 14.0592C10.782 14.0766 10.3934 14.0875 10 14.0875C9.60647 14.0875 9.21805 14.0766 8.83594 14.0592ZM10 6.78281C9.37682 6.78281 8.76885 6.80525 8.18164 6.84921C7.84979 7.33598 7.52564 7.85122 7.21387 8.3912C6.90236 8.93077 6.61876 9.46923 6.36328 9.9996C6.61888 10.5303 6.90217 11.0691 7.21387 11.609C7.52535 12.1485 7.85011 12.6626 8.18164 13.149C8.76886 13.193 9.37678 13.2174 10 13.2174C10.6231 13.2174 11.2312 13.193 11.8184 13.149C12.1499 12.6626 12.4746 12.1485 12.7861 11.609C13.0978 11.0691 13.3811 10.5303 13.6367 9.9996C13.3812 9.46923 13.0976 8.93077 12.7861 8.3912C12.4743 7.85105 12.1494 7.33613 11.8174 6.84921C11.2306 6.80532 10.6228 6.78281 10 6.78281ZM14.0977 11.0201C13.9214 11.3602 13.7361 11.7023 13.5391 12.0435C13.3425 12.384 13.1395 12.7148 12.9336 13.0367C13.5651 12.9575 14.1653 12.8534 14.7266 12.7281C14.5544 12.1792 14.345 11.6069 14.0977 11.0201ZM5.90234 11.0221C5.6553 11.6083 5.44451 12.1797 5.27246 12.7281C5.83368 12.8535 6.43389 12.9575 7.06543 13.0367C6.85962 12.715 6.65741 12.3838 6.46094 12.0435C6.26421 11.7028 6.0783 11.3616 5.90234 11.0221ZM4.42676 7.48203C4.05896 7.58615 3.7129 7.70116 3.3916 7.82382C2.55531 8.14317 1.90771 8.51363 1.47754 8.90195C1.04768 9.29018 0.869141 9.66236 0.869141 10.0006C0.869349 10.3388 1.04756 10.711 1.47754 11.0992C1.90776 11.4876 2.55523 11.857 3.3916 12.1764C3.71308 12.2991 4.05971 12.412 4.42773 12.5162C4.67778 11.7109 5.0035 10.864 5.40137 9.9996C5.00333 9.13473 4.67679 8.28773 4.42676 7.48203ZM15.5723 7.48203C15.3221 8.28771 14.9959 9.13475 14.5977 9.9996C14.9958 10.8641 15.322 11.7108 15.5723 12.5162C15.9403 12.412 16.2869 12.2991 16.6084 12.1764C17.4445 11.8571 18.0923 11.4874 18.5225 11.0992C18.9523 10.7111 19.1297 10.3387 19.1299 10.0006C19.1299 9.66235 18.9523 9.29019 18.5225 8.90195C18.0922 8.51357 17.4449 8.1432 16.6084 7.82382C16.2867 7.701 15.9405 7.58625 15.5723 7.48203ZM10 8.21738C10.9844 8.21738 11.782 9.01527 11.7822 9.9996C11.7822 10.9841 10.9845 11.7828 10 11.7828C9.0155 11.7828 8.21777 10.9841 8.21777 9.9996C8.21798 9.01528 9.01563 8.21739 10 8.21738ZM12.9336 6.96152C13.1398 7.28386 13.3422 7.6157 13.5391 7.95663C13.7359 8.29757 13.9216 8.63936 14.0977 8.9791C14.3451 8.39189 14.5553 7.81939 14.7275 7.27011C14.166 7.14473 13.5655 7.04077 12.9336 6.96152ZM7.06543 6.96152C6.43393 7.04077 5.83366 7.14477 5.27246 7.27011C5.44452 7.81886 5.65519 8.39054 5.90234 8.97714C6.07812 8.63796 6.26346 8.29699 6.45996 7.95663C6.65675 7.61578 6.85927 7.28377 7.06543 6.96152ZM6.69043 2.06992C6.13917 1.89164 5.72755 1.92331 5.43457 2.09238C5.14166 2.26155 4.90835 2.60203 4.78711 3.16855C4.66589 3.73527 4.66992 4.48086 4.81152 5.36484C4.86595 5.70448 4.93947 6.06158 5.0332 6.43222C5.8561 6.24606 6.75301 6.10572 7.70117 6.01816C8.25117 5.24094 8.82079 4.53409 9.39355 3.91464C9.11958 3.64829 8.84783 3.40591 8.58105 3.18906C7.8863 2.6244 7.24185 2.24834 6.69043 2.06992ZM14.5654 2.09238C14.2724 1.92327 13.8609 1.89156 13.3096 2.06992C12.7582 2.2483 12.1147 2.62442 11.4199 3.18906C11.1529 3.40612 10.8807 3.64896 10.6064 3.91562C11.1788 4.53492 11.7482 5.24124 12.2979 6.01816C13.2459 6.10565 14.1429 6.24517 14.9658 6.43124C15.0594 6.06103 15.1351 5.70509 15.1895 5.36581C15.3311 4.48173 15.3341 3.73533 15.2129 3.16855C15.0916 2.60199 14.8584 2.26154 14.5654 2.09238ZM10 4.54062C9.61067 4.96416 9.2205 5.43248 8.83594 5.94003C9.21804 5.92266 9.60649 5.91367 10 5.91367C10.3934 5.91367 10.782 5.92267 11.1641 5.94003C10.7795 5.43247 10.3893 4.96417 10 4.54062Z"
                    fill="currentColor"
                  />
                </svg>