<svg width="635" height="114" viewBox="0 0 635 114" fill="none" xmlns="http://www.w3.org/2000/svg">
<path fill-rule="evenodd" clip-rule="evenodd" d="M2.156 99.7667C11.607 107.972 24.539 113.386 40.953 113.386C70.797 113.386 81.74 97.1417 81.74 81.2257C81.74 58.2217 60.981 52.6427 42.838 47.7668C28.756 43.9823 16.25 40.6213 16.25 29.8647C16.25 19.5287 25.699 12.4727 38.965 12.4727C49.078 12.4727 59.191 15.4257 67.314 21.9897C68.476 22.9737 69.969 23.4667 71.295 23.4667C74.941 23.4667 77.762 20.1847 77.762 16.9027C77.762 15.0977 76.932 13.2917 75.439 11.9797C66.486 4.59574 54.217 0.328735 39.959 0.328735C18.238 0.328735 1.99 12.6367 1.99 30.6867C1.99 51.7954 21.1232 56.9404 38.7061 61.6686C53.6532 65.688 67.48 69.4061 67.48 82.3737C67.48 90.7427 61.182 101.243 41.451 101.243C28.683 101.243 18.072 95.9927 10.447 89.2647C9.285 88.2807 7.795 87.9517 6.467 87.9517C2.488 87.9517 0 91.5637 0 94.8447C0 96.6497 0.664 98.4537 2.156 99.7667ZM167.238 110.268C168.565 111.745 170.389 112.567 172.213 112.567C176.192 112.567 178.846 109.12 178.846 106.003C178.846 104.526 178.348 103.212 177.354 102.065L135.406 53.9853L173.209 11.3233C174.203 10.3383 174.699 8.86234 174.699 7.54934C174.699 3.93934 171.551 1.14934 167.902 1.14934C166.078 1.14934 164.42 1.80634 163.094 3.28334L115.344 58.5813V7.54934C115.344 3.93934 112.359 0.985336 108.711 0.985336C104.567 0.985336 101.582 3.93934 101.582 7.54934V105.674C101.582 109.448 104.567 112.401 108.381 112.401C112.359 112.401 115.344 109.448 115.344 105.674V74.6613L126.453 62.1903L167.238 110.268ZM266.168 111.417H208.635C203.164 111.417 198.688 106.987 198.688 101.573V11.8149C198.688 6.39994 203.164 1.97094 208.635 1.97094H266.168C269.484 1.97094 272.137 4.59594 272.137 8.20494C272.137 11.4869 269.484 14.1129 266.168 14.1129H212.449V49.3929H265.008C268.322 49.3929 270.977 52.0169 270.977 55.6259C270.977 58.9089 268.322 61.5339 265.008 61.5339H212.449V99.2739H266.168C269.484 99.2739 272.137 101.901 272.137 105.181C272.137 108.792 269.484 111.417 266.168 111.417ZM308.574 14.1132H332.613C359.97 14.1132 375.058 33.1472 375.058 56.7762C375.058 80.2412 359.474 99.2742 332.613 99.2742H308.574V14.1132ZM304.759 111.417H332.613C366.935 111.417 389.316 87.9522 389.316 56.7762C389.316 25.7632 366.935 1.97024 332.613 1.97024H304.759C299.289 1.97024 294.812 6.40024 294.812 11.8152V101.573C294.812 106.987 299.289 111.417 304.759 111.417Z" fill="white"/>
<path fill-rule="evenodd" clip-rule="evenodd" d="M543.091 56.694C543.091 75.962 558.71 91.581 577.98 91.581C597.249 91.581 612.869 75.962 612.869 56.694C612.869 37.425 597.249 21.806 577.98 21.806C558.71 21.806 543.091 37.425 543.091 56.694ZM578.038 0.000490629C578.058 0.000743714 578.079 0.001 578.099 0.001L620.718 0.003C628.425 0.003 634.673 6.251 634.673 13.958V56.692V56.694C634.673 88.003 609.291 113.386 577.98 113.386C546.669 113.386 521.287 88.003 521.287 56.694C521.287 25.384 546.669 0 577.98 0C578 0 578.019 0.000243792 578.038 0.000490629ZM403.49 56.7767C403.49 91.0707 429.519 113.55 461.519 113.55C482.742 113.55 507.115 102.884 507.115 84.1787V64.3227C507.115 57.9247 501.808 52.5087 495.175 52.5087H462.347C457.706 52.5087 453.892 56.2837 453.892 60.8777C453.892 65.9637 457.706 69.7387 462.347 69.7387H487.384V86.3117C482.576 90.9067 472.628 95.9927 461.519 95.9927C439.8 95.9927 423.716 79.4187 423.716 56.7767C423.716 33.9677 439.8 17.5597 461.519 17.5597C470.97 17.5597 480.255 21.4967 486.886 28.0607C488.71 29.8647 491.031 30.8507 493.517 30.8507C498.492 30.8507 502.802 26.9117 502.802 21.9887C502.802 19.6927 501.974 17.3947 500.316 15.7527C491.529 6.7297 478.927 0.164703 461.519 0.164703C429.519 0.164703 403.49 22.4817 403.49 56.7767Z" fill="#23B15E"/>
</svg>
