<svg xmlns="http://www.w3.org/2000/svg" width="222" height="56" viewBox="0 0 111 28">
  <g fill="none">
    <path fill="#154C7B" d="M9.43098592,26.5548387 L1.70655936,21.4516129 C-0.449094567,20.0064516 -0.538913481,17.6580645 1.3472837,16.0322581 L9.07171026,10.6129032 C11.3171831,9.21290323 14.9099396,9.21290323 17.1554125,10.6129032 L24.879839,16.0322581 C26.8109457,17.6580645 26.7211268,20.0064516 24.5205634,21.4516129 L16.8410463,26.5548387 C14.8201207,27.9096774 11.4519115,27.9096774 9.43098592,26.5548387"/>
    <path fill="#0C786E" d="M9.43098592,21.7677419 L1.70655936,16.7096774 C-0.449094567,15.2645161 -0.538913481,12.916129 1.3472837,11.2903226 L9.07171026,5.87096774 C11.3171831,4.47096774 14.9099396,4.47096774 17.1554125,5.87096774 L24.879839,11.2903226 C26.8109457,12.916129 26.7211268,15.2645161 24.5205634,16.7096774 L16.8410463,21.7677419 C14.8201207,23.1677419 11.4519115,23.1677419 9.43098592,21.7677419"/>
    <path fill="#23B15E" d="M9.43098592,17.3870968 L1.70655936,12.283871 C-0.449094567,10.8387097 -0.538913481,8.49032258 1.3472837,6.86451613 L9.07171026,1.44516129 C11.3171831,0.0451612903 14.9099396,0.0451612903 17.1554125,1.44516129 L24.879839,6.86451613 C26.8109457,8.49032258 26.7211268,10.8387097 24.5205634,12.283871 L16.8410463,17.3870968 C14.8201207,18.7419355 11.4519115,18.7419355 9.43098592,17.3870968"/>
    <path fill="#FFF" d="M15.9428571,11.3806452 C14.3710262,12.5096774 11.8560966,12.5096774 10.3291751,11.3806452 C8.75734406,10.2516129 8.75734406,8.49032258 10.3291751,7.36129032 C11.901006,6.23225806 14.4159356,6.23225806 15.9428571,7.36129032 C17.4697787,8.49032258 17.4697787,10.2967742 15.9428571,11.3806452 L15.9428571,11.3806452 Z M8.57770624,6.09677419 C8.57770624,6.09677419 8.57770624,6.09677419 8.57770624,6.09677419 C6.06277666,7.90322581 6.06277666,10.8387097 8.57770624,12.6451613 C11.0926358,14.4516129 15.1793964,14.4516129 17.694326,12.6451613 C20.2092555,10.8387097 20.2092555,7.90322581 17.694326,6.09677419 L17.694326,6.09677419 L14.2362978,3.61290323 C13.6075654,3.16129032 12.6195573,3.16129032 11.9908249,3.61290323 L8.57770624,6.09677419 Z"/>
    <g transform="translate(31 8)">
      <path fill="#23B15E" d="M50.0769953,0.6 C50.0769953,0.6 50.0769953,0.6 50.0769953,0.6 C47.0497653,0.6 44.6046948,3.09677419 44.6046948,6.23225806 C44.6046948,9.30967742 47.0497653,11.8645161 50.0769953,11.8645161 C53.1042254,11.8645161 55.5492958,9.36774194 55.5492958,6.23225806 L55.5492958,1.93548387 C55.5492958,1.18064516 54.9671362,0.541935484 54.2103286,0.541935484 L50.0769953,0.6 L50.0769953,0.6 Z M50.0769953,9.65806452 C48.2140845,9.65806452 46.7004695,8.09032258 46.7004695,6.17419355 C46.7004695,4.25806452 48.2140845,2.69032258 50.0769953,2.69032258 C51.9399061,2.69032258 53.4535211,4.25806452 53.4535211,6.17419355 C53.4535211,8.09032258 51.9399061,9.65806452 50.0769953,9.65806452 L50.0769953,9.65806452 L50.0769953,9.65806452 Z M33.1943662,6.17419355 C33.1943662,2.7483871 35.6976526,0.541935484 38.7830986,0.541935484 C40.4713615,0.541935484 41.6938967,1.18064516 42.5089202,2.10967742 C42.6835681,2.28387097 42.741784,2.51612903 42.741784,2.7483871 C42.741784,3.21290323 42.3342723,3.61935484 41.8685446,3.61935484 C41.6356808,3.61935484 41.4028169,3.50322581 41.228169,3.32903226 C40.5877934,2.69032258 39.714554,2.28387097 38.7830986,2.28387097 C36.6873239,2.28387097 35.115493,3.90967742 35.115493,6.17419355 C35.115493,8.43870968 36.6873239,10.0645161 38.7830986,10.0645161 C39.8309859,10.0645161 40.8206573,9.54193548 41.286385,9.07741935 L41.286385,7.4516129 L38.8413146,7.4516129 C38.3755869,7.4516129 38.0262911,7.10322581 38.0262911,6.58064516 C38.0262911,6.11612903 38.3755869,5.76774194 38.8413146,5.76774194 L42.0431925,5.76774194 C42.6835681,5.76774194 43.2075117,6.29032258 43.2075117,6.92903226 L43.2075117,8.90322581 C43.2075117,10.7612903 40.8788732,11.8064516 38.7830986,11.8064516 C35.6976526,11.8064516 33.1943662,9.6 33.1943662,6.17419355 Z"/>
      <path fill="#154C7B" d="M31.6807512,4.14193548 C31.6807512,2.34193548 30.458216,0.890322581 28.3042254,0.890322581 L24.9276995,0.890322581 C24.4037559,0.890322581 23.9380282,1.35483871 23.9380282,1.87741935 L23.9380282,11.1677419 C23.9380282,11.516129 24.229108,11.8064516 24.5784038,11.8064516 C24.9859155,11.8064516 25.2769953,11.516129 25.2769953,11.1677419 L25.2769953,7.4516129 L28.2460094,7.4516129 C30.4,7.39354839 31.6807512,5.88387097 31.6807512,4.14193548 L31.6807512,4.14193548 Z M30.2835681,4.14193548 C30.2835681,5.36129032 29.4103286,6.23225806 28.1295775,6.23225806 L25.3352113,6.23225806 L25.3352113,2.10967742 L28.1295775,2.10967742 C29.4103286,2.0516129 30.2835681,2.92258065 30.2835681,4.14193548 L30.2835681,4.14193548 Z M21.4347418,11.1677419 L21.4347418,1.41290323 C21.4347418,1.06451613 21.143662,0.774193548 20.7943662,0.774193548 C20.3868545,0.774193548 20.0957746,1.06451613 20.0957746,1.41290323 L20.0957746,11.1096774 C20.0957746,11.4580645 20.3868545,11.7483871 20.7361502,11.7483871 C21.143662,11.8064516 21.4347418,11.516129 21.4347418,11.1677419 L21.4347418,11.1677419 L21.4347418,11.1677419 Z M18,4.14193548 C18,2.16774194 16.6028169,0.890322581 14.6234742,0.890322581 L11.3051643,0.890322581 C10.7812207,0.890322581 10.315493,1.35483871 10.315493,1.87741935 L10.315493,11.1677419 C10.315493,11.516129 10.6065728,11.8064516 10.9558685,11.8064516 C11.3633803,11.8064516 11.6544601,11.516129 11.6544601,11.1677419 L11.6544601,7.4516129 L13.8084507,7.4516129 L16.428169,11.5741935 C16.5446009,11.7483871 16.7774648,11.8645161 16.9521127,11.8645161 C17.3596244,11.8645161 17.5924883,11.516129 17.5924883,11.2258065 C17.5924883,11.1096774 17.5342723,10.9935484 17.4760563,10.8774194 L15.1474178,7.33548387 C16.6610329,7.16129032 18,6.05806452 18,4.14193548 L18,4.14193548 Z M14.4488263,2.0516129 C15.7295775,2.0516129 16.6028169,2.92258065 16.6028169,4.14193548 C16.6028169,5.36129032 15.7295775,6.23225806 14.4488263,6.23225806 L11.6544601,6.23225806 L11.6544601,2.10967742 L14.4488263,2.10967742 L14.4488263,2.0516129 Z M8.62723005,1.47096774 C8.62723005,1.12258065 8.3943662,0.832258065 8.04507042,0.832258065 L0.884507042,0.832258065 C0.535211268,0.832258065 0.302347418,1.06451613 0.302347418,1.41290323 C0.302347418,1.76129032 0.535211268,2.0516129 0.884507042,2.0516129 L3.79530516,2.0516129 L3.79530516,11.1096774 C3.79530516,11.4580645 4.08638498,11.7483871 4.43568075,11.7483871 C4.84319249,11.7483871 5.1342723,11.4580645 5.1342723,11.1096774 L5.1342723,2.0516129 L8.04507042,2.0516129 C8.3943662,2.0516129 8.62723005,1.81935484 8.62723005,1.47096774 L8.62723005,1.47096774 L8.62723005,1.47096774 Z"/>
      <path fill="#999" d="M67.541784,11.1096774 C67.541784,11.0516129 67.541784,10.9354839 67.4835681,10.8774194 L63.7577465,1.52903226 C63.5830986,1.06451613 63.1755869,0.774193548 62.7098592,0.774193548 C62.1859155,0.774193548 61.7784038,1.06451613 61.6037559,1.52903226 L57.9361502,10.8774194 C57.8779343,10.9354839 57.8779343,11.0516129 57.8779343,11.1096774 C57.8779343,11.4580645 58.1690141,11.8064516 58.5765258,11.8064516 C58.8676056,11.8064516 59.1004695,11.6322581 59.2169014,11.3419355 L60.0319249,9.2516129 L65.3877934,9.2516129 L66.2028169,11.3419355 C66.3192488,11.6322581 66.5521127,11.8064516 66.8431925,11.8064516 C67.2507042,11.8064516 67.541784,11.4 67.541784,11.1096774 Z M64.9802817,8.09032258 L60.4394366,8.09032258 L62.7098592,2.28387097 L64.9802817,8.09032258 Z M76.914554,4.14193548 C76.914554,2.34193548 75.6920188,0.890322581 73.5380282,0.890322581 L70.2197183,0.890322581 C69.6957746,0.890322581 69.2300469,1.35483871 69.2300469,1.87741935 L69.2300469,11.1677419 C69.2300469,11.516129 69.5211268,11.8064516 69.8704225,11.8064516 C70.2779343,11.8064516 70.5690141,11.516129 70.5690141,11.1677419 L70.5690141,7.4516129 L73.5380282,7.4516129 C75.6920188,7.39354839 76.914554,5.88387097 76.914554,4.14193548 Z M75.5173709,4.14193548 C75.5173709,5.36129032 74.6441315,6.23225806 73.3633803,6.23225806 L70.5690141,6.23225806 L70.5690141,2.10967742 L73.3633803,2.10967742 C74.6441315,2.0516129 75.5173709,2.92258065 75.5173709,4.14193548 Z M80,11.1677419 L80,1.41290323 C80,1.06451613 79.7089202,0.774193548 79.3596244,0.774193548 C78.9521127,0.774193548 78.6610329,1.06451613 78.6610329,1.41290323 L78.6610329,11.1096774 C78.6610329,11.4580645 78.9521127,11.7483871 79.3014085,11.7483871 C79.7089202,11.8064516 80,11.516129 80,11.1677419 Z"/>
    </g>
  </g>
</svg>
